<svg xmlns="http://www.w3.org/2000/svg" viewBox="0 0 512 512" xml:space="preserve"><path style="fill:#ffe285" d="M347.787 397.818v-40.554h41.905c9.504 0 17.236-7.732 17.236-17.236V229.632c0-9.504-7.732-17.236-17.236-17.236h-41.905v-40.554h41.905c31.916 0 57.79 25.874 57.79 57.79v110.397c0 31.915-25.874 57.79-57.79 57.79l-41.905-.001z"/><path style="fill:#f6a230" d="M202.943 105.822h-40.207v81.137c0 13.365-10.835 24.2-24.199 24.2-13.365 0-24.199-10.836-24.199-24.2v-81.137H64.517v398.574h283.27V105.822H223.222"/><path style="fill:#ffe285" d="M347.787 504.396v-72.427c0-19.556-15.854-35.409-35.409-35.409s-35.409 15.853-35.409 35.409v72.427h70.818zM206.152 504.396v-72.427c0-19.556-15.854-35.409-35.409-35.409s-35.409 15.853-35.409 35.409v72.427h70.818z"/><path style="fill:#ffe285" d="M276.97 504.396v-72.427c0-19.556-15.854-35.409-35.409-35.409-19.554 0-35.409 15.853-35.409 35.409v72.427h70.818zM135.334 504.396v-72.427c0-19.556-15.853-35.409-35.409-35.409-19.555 0-35.409 15.853-35.409 35.409v72.427h70.818z"/><path style="fill:#53180f" d="M389.691 164.238H355.39V98.219h-.138c-1.712-23.047-20.999-41.279-44.476-41.279h-12.771C294.233 24.92 266.926 0 233.909 0c-25.786 0-48.09 15.203-58.42 37.113-8.398-11.284-21.835-18.607-36.951-18.607-23.08 0-42.248 17.07-45.539 39.249-19.639 3.76-34.474 20.217-35.954 40.463h-.132V512h298.48V405.422h34.301c36.058 0 65.394-29.336 65.394-65.394V229.632c-.003-36.058-29.338-65.394-65.397-65.394zm-251.153 54.525c17.537 0 31.803-14.267 31.803-31.804v-73.533h32.604V98.218h-47.811v88.741c0 9.151-7.445 16.596-16.595 16.596-9.15 0-16.595-7.445-16.595-16.596V98.218H72.305a29.286 29.286 0 0 1 28.086-26.041l7.317-.277-.001-7.616c.14-16.881 13.915-30.571 30.829-30.571 16.999 0 30.828 13.83 30.828 30.829h15.208c0-27.204 22.131-49.335 49.335-49.335s49.335 22.131 49.335 49.335v7.604h27.532c15.087 0 27.558 11.421 29.217 26.071H223.22v15.208h116.961V399.19c-7.504-6.375-17.21-10.233-27.805-10.233-14.671 0-27.643 7.387-35.409 18.632-7.766-11.245-20.738-18.632-35.409-18.632s-27.643 7.387-35.409 18.632c-7.766-11.245-20.738-18.632-35.409-18.632s-27.643 7.387-35.409 18.632c-7.766-11.245-20.738-18.632-35.409-18.632-10.595 0-20.3 3.858-27.805 10.233V113.426h34.614v73.533c.003 17.537 14.27 31.804 31.807 31.804zM355.39 220h34.301c5.311 0 9.632 4.321 9.632 9.632v110.397c0 5.311-4.321 9.632-9.632 9.632H355.39V220zM72.121 496.792v-64.823c0-15.332 12.473-27.805 27.805-27.805s27.805 12.473 27.805 27.805v64.823h-55.61zm70.817 0v-64.823c0-15.332 12.473-27.805 27.805-27.805s27.805 12.473 27.805 27.805v64.823h-55.61zm70.818 0v-64.823c0-15.332 12.473-27.805 27.805-27.805s27.805 12.473 27.805 27.805v64.823h-55.61zm126.427 0h-55.61v-64.823c0-15.332 12.474-27.805 27.805-27.805 15.332 0 27.805 12.473 27.805 27.805v64.823zm99.694-156.763c0 27.672-22.514 50.186-50.186 50.186H355.39v-25.346h34.301c13.697 0 24.84-11.143 24.84-24.84V229.632c0-13.696-11.142-24.84-24.84-24.84H355.39v-25.346h34.301c27.672 0 50.186 22.514 50.186 50.186v110.397z"/></svg>